<svg width="24" height="24" viewBox="0 0 24 24" fill="none" xmlns="http://www.w3.org/2000/svg">
<mask id="mask0_60_96" style="mask-type:alpha" maskUnits="userSpaceOnUse" x="-1" y="2" width="21" height="21">
<rect x="-0.196381" y="2.88092" width="19.6964" height="19.6964" fill="#D9D9D9"/>
</mask>
<g mask="url(#mask0_60_96)">
<path d="M1.44498 20.9359V6.16364C1.44498 5.71227 1.60583 5.32573 1.92754 5.00402C2.2487 4.68286 2.63497 4.52228 3.08634 4.52228H16.2173C16.6686 4.52228 17.0552 4.68286 17.3769 5.00402C17.6981 5.32573 17.8586 5.71227 17.8586 6.16364V16.0118C17.8586 16.4632 17.6981 16.8498 17.3769 17.1715C17.0552 17.4926 16.6686 17.6532 16.2173 17.6532H4.72771L1.44498 20.9359ZM3.08634 16.9761L4.05065 16.0118H16.2173V6.16364H3.08634V16.9761Z" fill="black" fill-opacity="0.6"/>
</g>
</svg>
