<svg width="17" height="17" viewBox="0 0 17 17" fill="none" xmlns="http://www.w3.org/2000/svg">
<rect width="17" height="17" rx="2" fill="#F0F0F0"/>
<g clip-path="url(#clip0_435_95)">
<path d="M12.1492 4.85082C11.7648 4.46639 11.1415 4.46639 10.7571 4.85082L10.3231 5.28475L11.7153 6.67687L12.1492 6.24293C12.5336 5.85851 12.5336 5.23524 12.1492 4.85082Z" fill="#1E1E1E" fill-opacity="0.5"/>
<path d="M11.3175 7.07461L9.92539 5.6825L5.36883 10.2391C5.13753 10.4704 4.96751 10.7556 4.87413 11.0691L4.57421 12.076C4.54473 12.1749 4.57186 12.2821 4.64488 12.3551C4.71791 12.4281 4.82508 12.4553 4.92405 12.4258L5.93088 12.1259C6.24437 12.0325 6.52965 11.8625 6.76095 11.6312L11.3175 7.07461Z" fill="#1E1E1E" fill-opacity="0.5"/>
</g>
<defs>
<clipPath id="clip0_435_95">
<rect width="9" height="9" fill="white" transform="translate(4 4)"/>
</clipPath>
</defs>
</svg>
