<svg width="25" height="24" viewBox="0 0 25 24" fill="none" xmlns="http://www.w3.org/2000/svg">
<path d="M20.7124 11.9597L20.4589 12.3541L20.8362 12.6324C20.9755 12.7352 21.0325 12.7857 21.0744 12.8561C21.1134 12.9217 21.1667 13.0548 21.1667 13.3533C21.1667 13.6213 21.1014 13.7644 21.0358 13.853C20.9632 13.9509 20.8542 14.0312 20.6871 14.1183L20.2229 14.3603L20.486 14.8129C20.5804 14.9755 20.612 15.1743 20.5703 15.3648L20.5697 15.3679C20.4906 15.7409 20.1434 16.0566 19.855 16.1425L19.2417 16.3251L19.5673 16.876C19.6392 16.9978 19.6635 17.0807 19.6674 17.1436C19.6709 17.199 19.6612 17.2789 19.5902 17.4019C19.4647 17.6127 19.3944 17.677 19.2932 17.7225C19.1563 17.784 18.9042 17.8333 18.3509 17.8333H13.7719C12.3852 17.8333 11.9035 17.0545 11.9035 16.6667V12.775C11.9035 11.9218 12.3893 11.0934 12.9779 10.2094C13.0276 10.1347 13.0782 10.0594 13.1291 9.98358C13.3646 9.6328 13.6066 9.27241 13.7963 8.92688C14.0259 8.5085 14.2198 8.04221 14.2198 7.55833V7.53481L14.2176 7.5114L14.0511 5.74488C14.051 5.74291 14.0509 5.7396 14.0509 5.73491C14.0509 5.72643 14.0511 5.71555 14.0517 5.70287C14.0527 5.68302 14.0545 5.66202 14.0571 5.64203C14.0873 5.62352 14.1279 5.60241 14.179 5.58219C14.2905 5.53805 14.4472 5.5 14.6467 5.5C14.9023 5.5 15.0544 5.54497 15.264 5.65111L15.2651 5.65163C15.578 5.80909 15.7981 6.09603 15.9433 6.48534C16.0898 6.87815 16.1456 7.34092 16.1456 7.775C16.1456 7.77495 16.1456 7.77496 16.1456 7.77504C16.1456 7.77585 16.1454 7.78408 16.143 7.80144C16.1404 7.81981 16.1361 7.84401 16.1293 7.8746C16.1156 7.93641 16.0943 8.01305 16.0655 8.10383C16.0078 8.28594 15.9281 8.4999 15.8411 8.72582C15.8152 8.79312 15.7885 8.86198 15.7617 8.93099C15.7009 9.08734 15.6399 9.24447 15.5877 9.38598C15.5152 9.58241 15.4431 9.79176 15.4122 9.95557L15.2698 10.71L16.0171 10.5353L16.0172 10.5352L16.0172 10.5352L16.0173 10.5352L16.0174 10.5352L16.0194 10.5347L16.0292 10.5325L16.0712 10.5233C16.1089 10.5151 16.1656 10.5032 16.239 10.4887C16.3859 10.4598 16.5995 10.4208 16.8621 10.3813C17.3885 10.3022 18.1054 10.2223 18.8738 10.2167C19.6969 10.2118 20.2963 10.2931 20.6744 10.4631C20.8548 10.5442 20.9622 10.6357 21.0261 10.7272C21.0875 10.8151 21.1319 10.9358 21.1319 11.12C21.1319 11.2133 21.0919 11.3429 21.0011 11.5091C20.9376 11.6253 20.8755 11.7167 20.8111 11.8115C20.7789 11.8589 20.7462 11.9071 20.7124 11.9597ZM7.61406 12.1667H8.87721C8.98687 12.1667 9.09789 12.2124 9.18413 12.3034C9.27124 12.3954 9.32458 12.5256 9.32458 12.6667V19C9.32458 19.1411 9.27124 19.2713 9.18413 19.3632C9.09789 19.4543 8.98687 19.5 8.87721 19.5H7.61406C7.5044 19.5 7.39338 19.4543 7.30714 19.3632C7.22003 19.2713 7.16669 19.1411 7.16669 19V12.6667C7.16669 12.5256 7.22003 12.3954 7.30714 12.3034C7.39338 12.2124 7.5044 12.1667 7.61406 12.1667Z" stroke="black" stroke-opacity="0.6"/>
</svg>
