<svg width="25" height="24" viewBox="0 0 25 24" fill="none" xmlns="http://www.w3.org/2000/svg">
<path d="M21.1329 12.23C21.4108 12.435 21.6666 12.6383 21.6666 13.3533C21.6666 14.07 21.305 14.36 20.9182 14.5617C21.0763 14.8338 21.1268 15.1606 21.0587 15.4717C20.9372 16.045 20.4398 16.49 19.9977 16.6217C20.1887 16.945 20.2487 17.2633 20.0214 17.655C19.7293 18.1467 19.475 18.3333 18.3508 18.3333H13.7719C12.2119 18.3333 11.4035 17.4233 11.4035 16.6667V12.775C11.4035 10.725 13.7198 8.98333 13.7198 7.55833L13.5524 5.78333C13.5445 5.675 13.565 5.41 13.644 5.33333C13.7703 5.20167 14.1193 5 14.6466 5C14.9908 5 15.2198 5.06833 15.4898 5.205C16.4072 5.66667 16.6456 6.835 16.6456 7.775C16.6456 8.22667 15.9919 9.58 15.9035 10.0483C15.9035 10.0483 17.2724 9.72833 18.8703 9.71667C20.5456 9.70667 21.6319 10.0333 21.6319 11.12C21.6319 11.555 21.2861 11.9917 21.1329 12.23ZM7.61399 11.6667H8.87715C9.12841 11.6667 9.36938 11.772 9.54704 11.9596C9.72471 12.1471 9.82452 12.4015 9.82452 12.6667V19C9.82452 19.2652 9.72471 19.5196 9.54704 19.7071C9.36938 19.8946 9.12841 20 8.87715 20H7.61399C7.36274 20 7.12177 19.8946 6.9441 19.7071C6.76644 19.5196 6.66663 19.2652 6.66663 19V12.6667C6.66663 12.4015 6.76644 12.1471 6.9441 11.9596C7.12177 11.772 7.36274 11.6667 7.61399 11.6667Z" fill="#129BF7"/>
</svg>
