<svg width="16" height="13" viewBox="0 0 16 13" fill="none" xmlns="http://www.w3.org/2000/svg">
<path d="M1.67616 0.156447C1.67616 0.156447 8.53571 1.01122 10.9237 1.29406C11.8491 1.38749 14.9416 1.77324 14.9416 1.77324C14.9416 1.77324 16.3505 1.97911 15.4487 3.14706C15.0843 3.63265 13.6749 5.24327 12.1699 6.99831C10.0199 9.46842 7.67288 12.1714 7.67288 12.1714C7.67288 12.1714 7.06368 12.9621 6.46076 12.7707C5.85783 12.5792 5.45213 11.3764 5.39853 11.1332C5.35076 10.9459 4.30686 7.91906 4.05648 6.61135C3.99089 6.2565 4.03881 5.66536 4.8508 5.47605C6.71367 4.99607 8.97655 4.3656 10.3737 3.94074C11.0186 3.74464 12.0456 2.97101 9.74108 3.21052C6.45139 3.57666 3.2632 3.85425 3.2632 3.85425C3.2632 3.85425 2.54676 3.8991 1.86642 2.98161C1.18601 2.06414 0.428122 0.939567 0.428122 0.939567C0.428122 0.939567 0.0702286 -0.0759356 1.67616 0.156447Z" fill="#1E1E1E" fill-opacity="0.5"/>
</svg>
