<svg width="25" height="24" viewBox="0 0 25 24" fill="none" xmlns="http://www.w3.org/2000/svg">
<path d="M4.37709 20.2125C4.31122 20.2128 4.24576 20.2023 4.18334 20.1812C4.05281 20.1388 3.93986 20.0547 3.86192 19.9417C3.78398 19.8288 3.74538 19.6933 3.75209 19.5562C3.75209 19.4625 4.39584 10.3875 13.4958 9.67497V6.41247C13.4957 6.28822 13.5327 6.16675 13.6019 6.06358C13.6712 5.96041 13.7696 5.88023 13.8847 5.83327C13.9997 5.78632 14.1261 5.77472 14.2478 5.79996C14.3695 5.8252 14.4808 5.88613 14.5677 5.97497L20.7365 12.275C20.851 12.3918 20.9151 12.5489 20.9151 12.7125C20.9151 12.8761 20.851 13.0331 20.7365 13.15L14.5677 19.45C14.4808 19.5388 14.3695 19.5998 14.2478 19.625C14.1261 19.6502 13.9997 19.6386 13.8847 19.5917C13.7696 19.5447 13.6712 19.4645 13.6019 19.3614C13.5327 19.2582 13.4957 19.1367 13.4958 19.0125V15.8125C7.42084 16.0437 4.93021 19.875 4.90521 19.9218C4.84883 20.0109 4.77084 20.0842 4.67851 20.135C4.58617 20.1859 4.48248 20.2125 4.37709 20.2125ZM14.7458 7.94372V10.2593C14.7459 10.4214 14.6831 10.5771 14.5706 10.6937C14.4581 10.8103 14.3047 10.8787 14.1427 10.8843C8.25522 11.1 6.14897 15.0218 5.39272 17.5437C6.95521 16.1937 9.73959 14.5437 14.0833 14.5437H14.1115C14.2772 14.5437 14.4362 14.6096 14.5534 14.7268C14.6706 14.844 14.7365 15.003 14.7365 15.1687V17.4843L19.424 12.7156L14.7458 7.94372Z" fill="black" fill-opacity="0.6"/>
</svg>
